<svg width="51" height="17" viewBox="0 0 51 17" fill="none" xmlns="http://www.w3.org/2000/svg">
<path d="M11.928 13.808H5.256L4.152 17H0.624L6.648 0.223999H10.56L16.584 17H13.032L11.928 13.808ZM11.016 11.12L8.592 4.112L6.168 11.12H11.016ZM27.4757 17L23.7797 10.472H22.1957V17H18.8357V0.248H25.1237C26.4197 0.248 27.5237 0.48 28.4357 0.943999C29.3477 1.392 30.0277 2.008 30.4757 2.792C30.9397 3.56 31.1717 4.424 31.1717 5.384C31.1717 6.488 30.8517 7.488 30.2117 8.384C29.5717 9.264 28.6197 9.872 27.3557 10.208L31.3637 17H27.4757ZM22.1957 7.952H25.0037C25.9157 7.952 26.5957 7.736 27.0437 7.304C27.4917 6.856 27.7157 6.24 27.7157 5.456C27.7157 4.688 27.4917 4.096 27.0437 3.68C26.5957 3.248 25.9157 3.032 25.0037 3.032H22.1957V7.952ZM44.5547 0.248V2.96H37.5707V7.256H42.9227V9.92H37.5707V17H34.2107V0.248H44.5547ZM50.2973 0.248V17H46.9373V0.248H50.2973Z" fill="black"/>
</svg>
