<svg width="126" height="65" viewBox="0 0 126 65" fill="none" xmlns="http://www.w3.org/2000/svg">
<path d="M35.7387 7.22227C35.5047 7.22229 35.2747 7.16002 35.072 7.04171L27.9285 2.90098L20.7851 7.05375C20.6327 7.14227 20.4645 7.19957 20.2901 7.22237C20.1158 7.24518 19.9387 7.23304 19.769 7.18665C19.5993 7.14026 19.4403 7.06054 19.3011 6.95203C19.1618 6.84351 19.0451 6.70834 18.9576 6.55421C18.87 6.40009 18.8133 6.23005 18.7908 6.05378C18.7682 5.87752 18.7802 5.69849 18.8261 5.52692C18.872 5.35534 18.9509 5.19459 19.0582 5.05383C19.1655 4.91306 19.2992 4.79505 19.4517 4.70653L27.4047 0.180617C27.6074 0.0622922 27.8374 0 28.0714 0C28.3055 0 28.5354 0.0622922 28.7381 0.180617L36.4888 4.71857C36.7441 4.87286 36.9411 5.10904 37.0484 5.38954C37.1557 5.67003 37.1671 5.97875 37.0809 6.26657C36.9946 6.5544 36.8157 6.80482 36.5725 6.97799C36.3293 7.15116 36.0358 7.23715 35.7387 7.22227Z" fill="black"/>
<path d="M1.35492 27.3361C1.1788 27.3361 1.00443 27.3008 0.841869 27.2323C0.679307 27.1638 0.531777 27.0635 0.407799 26.937C0.28382 26.8105 0.185849 26.6605 0.119542 26.4955C0.0532342 26.3306 0.019904 26.154 0.0214765 25.9759V16.8519C0.0214765 16.4943 0.161964 16.1514 0.412033 15.8986C0.662102 15.6458 1.00127 15.5037 1.35492 15.5037C1.70857 15.5037 2.04774 15.6458 2.29781 15.8986C2.54788 16.1514 2.68836 16.4943 2.68836 16.8519V25.9278C2.68836 26.2853 2.54788 26.6282 2.29781 26.8811C2.04774 27.1339 1.70857 27.2759 1.35492 27.2759" fill="black"/>
<path d="M54.6451 27.3361C54.2914 27.3361 53.9522 27.1941 53.7022 26.9412C53.4521 26.6884 53.3116 26.3455 53.3116 25.988V16.8519C53.3116 16.4943 53.4521 16.1514 53.7022 15.8986C53.9522 15.6458 54.2914 15.5037 54.6451 15.5037C54.9987 15.5037 55.3379 15.6458 55.5879 15.8986C55.838 16.1514 55.9785 16.4943 55.9785 16.8519V25.9278C55.9785 26.2853 55.838 26.6282 55.5879 26.8811C55.3379 27.1339 54.9987 27.2759 54.6451 27.2759" fill="black"/>
<path d="M54.6451 49.3518C54.2914 49.3518 53.9522 49.2098 53.7022 48.957C53.4521 48.7041 53.3116 48.3612 53.3116 48.0037V38.9879C53.3116 38.6304 53.4521 38.2875 53.7022 38.0347C53.9522 37.7818 54.2914 37.6398 54.6451 37.6398C54.9987 37.6398 55.3379 37.7818 55.5879 38.0347C55.838 38.2875 55.9785 38.6304 55.9785 38.9879V48.0639C55.9632 48.4109 55.8159 48.7385 55.5675 48.9785C55.3191 49.2184 54.9886 49.3522 54.6451 49.3518Z" fill="black"/>
<path d="M1.35493 49.3518C1.01135 49.3522 0.680905 49.2184 0.432478 48.9785C0.184052 48.7385 0.0368224 48.4109 0.0214844 48.0639V38.9879C0.0214844 38.6304 0.161971 38.2875 0.412041 38.0347C0.66211 37.7818 1.00128 37.6398 1.35493 37.6398C1.70858 37.6398 2.04775 37.7818 2.29781 38.0347C2.54788 38.2875 2.68837 38.6304 2.68837 38.9879V48.0639C2.67303 48.4109 2.5258 48.7385 2.27738 48.9785C2.02895 49.2184 1.6985 49.3522 1.35493 49.3518Z" fill="black"/>
<path d="M28.0119 12.6028C27.6583 12.6028 27.3191 12.4608 27.069 12.2079C26.819 11.9551 26.6785 11.6122 26.6785 11.2547V1.36024C26.6785 1.00109 26.8196 0.656654 27.0708 0.402699C27.322 0.148744 27.6626 0.006073 28.0179 0.006073C28.3731 0.006073 28.7138 0.148744 28.965 0.402699C29.2161 0.656654 29.3573 1.00109 29.3573 1.36024V11.2547C29.3573 11.6122 29.2168 11.9551 28.9667 12.2079C28.7166 12.4608 28.3775 12.6028 28.0238 12.6028" fill="black"/>
<path d="M28.0119 65C27.6583 65 27.3191 64.8579 27.069 64.6051C26.819 64.3523 26.6785 64.0094 26.6785 63.6518V54.5759C26.6785 54.2168 26.8196 53.8723 27.0708 53.6184C27.322 53.3644 27.6626 53.2217 28.0179 53.2217C28.3731 53.2217 28.7138 53.3644 28.965 53.6184C29.2161 53.8723 29.3573 54.2168 29.3573 54.5759V63.6518C29.3573 63.8299 29.3224 64.0062 29.2546 64.1705C29.1869 64.3349 29.0876 64.484 28.9625 64.6094C28.8374 64.7347 28.689 64.8338 28.5259 64.9008C28.3627 64.9679 28.188 65.0015 28.0119 65Z" fill="black"/>
<path d="M28.0119 64.9999C27.7779 64.9994 27.5481 64.9371 27.3452 64.8194L19.535 60.2573C19.2271 60.0786 19.0021 59.7835 18.9095 59.437C18.8168 59.0905 18.8641 58.7209 19.0409 58.4097C19.2177 58.0984 19.5096 57.8709 19.8524 57.7772C20.1951 57.6835 20.5606 57.7314 20.8684 57.9101L28.0119 62.087L35.0482 57.9583C35.3561 57.7779 35.7222 57.7286 36.066 57.8211C36.4099 57.9137 36.7033 58.1405 36.8817 58.4518C37.0601 58.7631 37.1089 59.1332 37.0173 59.4809C36.9258 59.8285 36.7014 60.1251 36.3935 60.3055L28.6786 64.8194C28.4761 64.9382 28.246 65.0005 28.0119 64.9999Z" fill="black"/>
<path d="M46.8706 22.7982C46.5732 22.803 46.2827 22.7071 46.0453 22.5258C45.8079 22.3445 45.6374 22.0882 45.5607 21.7976C45.4841 21.5069 45.5057 21.1988 45.6223 20.922C45.7388 20.6453 45.9436 20.4159 46.2039 20.2704L53.9665 15.7324C54.2697 15.5753 54.6208 15.5416 54.9479 15.638C55.275 15.7344 55.5531 15.9538 55.7253 16.2511C55.8974 16.5483 55.9505 16.9009 55.8736 17.2365C55.7967 17.572 55.5957 17.8651 55.3118 18.0556L47.5492 22.5935C47.3465 22.7118 47.1166 22.7741 46.8825 22.7741" fill="black"/>
<path d="M54.6332 18.2602C54.3991 18.2602 54.1691 18.198 53.9664 18.0797L46.192 13.5417C45.8841 13.3629 45.6591 13.0678 45.5664 12.7213C45.4738 12.3748 45.5211 12.0053 45.6979 11.694C45.8747 11.3828 46.1666 11.1553 46.5093 11.0616C46.8521 10.9679 47.2176 11.0157 47.5254 11.1945L55.2999 15.7324C55.5602 15.878 55.7649 16.1074 55.8815 16.3841C55.998 16.6608 56.0197 16.969 55.9431 17.2596C55.8664 17.5502 55.6958 17.8066 55.4585 17.9879C55.2211 18.1692 54.9306 18.2651 54.6332 18.2602Z" fill="black"/>
<path d="M9.12938 22.7981C8.89532 22.7982 8.66537 22.7359 8.46266 22.6176L0.688204 18.0556C0.380338 17.8768 0.155324 17.5817 0.0626641 17.2352C-0.0299955 16.8887 0.0172895 16.5191 0.194115 16.2079C0.370941 15.8966 0.662823 15.6691 1.00555 15.5754C1.34828 15.4818 1.71378 15.5296 2.02165 15.7083L9.7842 20.2463C10.0445 20.3918 10.2493 20.6212 10.3658 20.8979C10.4824 21.1747 10.504 21.4829 10.4274 21.7735C10.3507 22.0641 10.1802 22.3204 9.94279 22.5017C9.70543 22.6831 9.41492 22.7789 9.11747 22.7741" fill="black"/>
<path d="M1.35493 18.2602C1.05748 18.2651 0.766966 18.1692 0.529607 17.9879C0.292249 17.8066 0.121676 17.5502 0.0450242 17.2596C-0.0316278 16.969 -0.00995638 16.6608 0.10659 16.3841C0.223137 16.1074 0.427865 15.878 0.688207 15.7325L8.45076 11.2065C8.6032 11.118 8.77139 11.0607 8.94573 11.0379C9.12007 11.0151 9.29715 11.0273 9.46685 11.0736C9.63655 11.12 9.79556 11.1998 9.93478 11.3083C10.074 11.4168 10.1907 11.552 10.2783 11.7061C10.3658 11.8602 10.4225 12.0302 10.4451 12.2065C10.4676 12.3828 10.4556 12.5618 10.4097 12.7334C10.3639 12.9049 10.285 13.0657 10.1777 13.2065C10.0703 13.3472 9.93664 13.4652 9.7842 13.5538L2.02165 18.0556C1.81872 18.1734 1.58892 18.2356 1.35493 18.2362" fill="black"/>
<path d="M46.8587 53.9499C46.5612 53.9548 46.2707 53.8589 46.0334 53.6776C45.796 53.4963 45.6254 53.2399 45.5488 52.9493C45.4721 52.6587 45.4938 52.3505 45.6104 52.0738C45.7269 51.7971 45.9316 51.5677 46.192 51.4222L53.9783 46.9444C54.2862 46.7656 54.6517 46.7178 54.9944 46.8115C55.3372 46.9052 55.629 47.1327 55.8059 47.4439C55.9827 47.7552 56.03 48.1247 55.9373 48.4712C55.8447 48.8177 55.6196 49.1128 55.3118 49.2916L47.5254 53.7694C47.3225 53.8872 47.0927 53.9494 46.8587 53.9499Z" fill="black"/>
<path d="M54.6451 49.3518C54.411 49.3518 54.1811 49.2896 53.9783 49.1713L46.2039 44.6333C46.0515 44.5448 45.9178 44.4268 45.8104 44.286C45.7031 44.1453 45.6242 43.9845 45.5784 43.8129C45.4857 43.4664 45.533 43.0969 45.7098 42.7856C45.8866 42.4744 46.1785 42.2469 46.5212 42.1532C46.864 42.0595 47.2295 42.1073 47.5373 42.2861L55.3118 46.9444C55.5721 47.09 55.7769 47.3193 55.8934 47.5961C56.01 47.8728 56.0316 48.181 55.955 48.4716C55.8783 48.7622 55.7078 49.0186 55.4704 49.1999C55.233 49.3812 54.9425 49.477 54.6451 49.4722" fill="black"/>
<path d="M9.12938 53.95C8.89539 53.9495 8.66559 53.8872 8.46266 53.7694L0.688204 49.2315C0.445974 49.0258 0.283971 48.7397 0.231135 48.4244C0.178299 48.109 0.238073 47.785 0.399778 47.5101C0.561483 47.2352 0.814584 47.0274 1.11387 46.9237C1.41315 46.8201 1.73913 46.8275 2.03355 46.9445L9.7961 51.4824C10.0564 51.6279 10.2612 51.8573 10.3777 52.134C10.4943 52.4108 10.5159 52.719 10.4393 53.0096C10.3626 53.3002 10.1921 53.5565 9.9547 53.7379C9.71734 53.9192 9.42683 54.015 9.12938 54.0102" fill="black"/>
<path d="M1.35493 49.3518C1.05748 49.3567 0.766966 49.2608 0.529607 49.0795C0.292249 48.8982 0.121676 48.6418 0.0450242 48.3512C-0.0316278 48.0606 -0.00995638 47.7524 0.10659 47.4757C0.223137 47.199 0.427865 46.9696 0.688207 46.824L8.43885 42.2861C8.74672 42.1057 9.11284 42.0564 9.45669 42.1489C9.80053 42.2415 10.0939 42.4683 10.2723 42.7796C10.4507 43.0909 10.4995 43.461 10.408 43.8087C10.3165 44.1563 10.0921 44.4529 9.7842 44.6333L2.03356 49.2314C1.83084 49.3497 1.6009 49.412 1.36683 49.412" fill="black"/>
<mask id="mask0_17_455" style="mask-type:luminance" maskUnits="userSpaceOnUse" x="0" y="0" width="29" height="18">
<path d="M0.592957 0.589874H28.7739V17.6824H0.592957V0.589874Z" fill="white"/>
</mask>
<g mask="url(#mask0_17_455)">
<g opacity="0.2">
<path d="M1.3551 17.6825C1.18513 17.6853 1.01912 17.6305 0.88349 17.5269C0.747856 17.4233 0.650385 17.2768 0.606584 17.1108C0.562783 16.9447 0.575167 16.7686 0.641765 16.6105C0.708363 16.4523 0.825351 16.3213 0.974118 16.2381L27.6311 0.686281C27.7179 0.635697 27.8136 0.60289 27.913 0.58973C28.0123 0.57657 28.1132 0.583316 28.2099 0.609583C28.3067 0.63585 28.3973 0.681123 28.4768 0.742818C28.5562 0.804513 28.6228 0.881421 28.6728 0.969151C28.7229 1.05688 28.7553 1.15372 28.7683 1.25412C28.7814 1.35453 28.7747 1.45655 28.7487 1.55435C28.7227 1.65216 28.6779 1.74383 28.6169 1.82413C28.5559 1.90444 28.4798 1.97181 28.3931 2.02239L1.73609 17.5742C1.62075 17.6436 1.48932 17.681 1.3551 17.6825Z" fill="black"/>
</g>
</g>
<mask id="mask1_17_455" style="mask-type:luminance" maskUnits="userSpaceOnUse" x="0" y="16" width="56" height="33">
<path d="M0.592957 16.1417H55.3951V48.8342H0.592957V16.1417Z" fill="white"/>
</mask>
<g mask="url(#mask1_17_455)">
<g opacity="0.2">
<path d="M1.3551 48.8343C1.18513 48.8371 1.01912 48.7823 0.88349 48.6787C0.747856 48.5751 0.650385 48.4286 0.606584 48.2625C0.562783 48.0965 0.575167 47.9204 0.641765 47.7622C0.708363 47.6041 0.825351 47.473 0.974118 47.3899L54.2643 16.2381C54.4395 16.1359 54.6477 16.1083 54.8431 16.1614C55.0384 16.2144 55.205 16.3438 55.306 16.5209C55.407 16.6981 55.4343 16.9086 55.3819 17.1061C55.3294 17.3037 55.2015 17.472 55.0262 17.5742L1.73609 48.726C1.62075 48.7954 1.48932 48.8327 1.3551 48.8343Z" fill="black"/>
</g>
</g>
<mask id="mask2_17_455" style="mask-type:luminance" maskUnits="userSpaceOnUse" x="27" y="0" width="29" height="18">
<path d="M27.2499 0.589874H55.3951V17.6824H27.2499V0.589874Z" fill="white"/>
</mask>
<g mask="url(#mask2_17_455)">
<g opacity="0.2">
<path d="M54.6331 17.6826C54.4989 17.681 54.3675 17.6436 54.2521 17.5742L27.6309 2.02242C27.5441 1.97184 27.468 1.90447 27.407 1.82416C27.346 1.74386 27.3012 1.65219 27.2752 1.55438C27.2493 1.45658 27.2426 1.35456 27.2556 1.25416C27.2686 1.15375 27.3011 1.05691 27.3511 0.969182C27.4521 0.792003 27.6187 0.662662 27.814 0.609614C27.9108 0.583347 28.0117 0.5766 28.111 0.58976C28.2103 0.60292 28.3061 0.635728 28.3929 0.686311L55.0141 16.2381C55.1629 16.3213 55.2799 16.4524 55.3465 16.6105C55.4131 16.7686 55.4254 16.9447 55.3816 17.1108C55.3378 17.2769 55.2404 17.4234 55.1047 17.527C54.9691 17.6306 54.8031 17.6853 54.6331 17.6826Z" fill="black"/>
</g>
</g>
<mask id="mask3_17_455" style="mask-type:luminance" maskUnits="userSpaceOnUse" x="0" y="16" width="56" height="33">
<path d="M0.592957 16.1417H55.3951V48.8342H0.592957V16.1417Z" fill="white"/>
</mask>
<g mask="url(#mask3_17_455)">
<g opacity="0.2">
<path d="M54.645 48.8343C54.5107 48.8333 54.3792 48.7959 54.2641 48.726L0.973914 17.5742C0.887141 17.5236 0.811071 17.4562 0.750049 17.3759C0.689027 17.2956 0.644248 17.2039 0.618268 17.1061C0.592287 17.0083 0.585614 16.9063 0.598631 16.8059C0.611647 16.7055 0.644097 16.6087 0.694129 16.5209C0.74416 16.4332 0.810794 16.3563 0.890224 16.2946C0.969654 16.2329 1.06032 16.1876 1.15706 16.1614C1.2538 16.1351 1.3547 16.1284 1.45402 16.1415C1.55333 16.1547 1.64911 16.1875 1.73588 16.2381L55.026 47.3899C55.1748 47.473 55.2918 47.6041 55.3584 47.7622C55.425 47.9204 55.4374 48.0965 55.3936 48.2625C55.3498 48.4286 55.2523 48.5751 55.1166 48.6787C54.981 48.7823 54.815 48.8371 54.645 48.8343Z" fill="black"/>
</g>
</g>
<mask id="mask4_17_455" style="mask-type:luminance" maskUnits="userSpaceOnUse" x="0" y="47" width="29" height="18">
<path d="M0.592957 47.2815H28.7739V64.4222H0.592957V47.2815Z" fill="white"/>
</mask>
<g mask="url(#mask4_17_455)">
<g opacity="0.2">
<path d="M28.0119 64.4221C27.8776 64.4206 27.7462 64.3832 27.6309 64.3138L0.973901 48.6657C0.798654 48.5635 0.670724 48.3952 0.618254 48.1977C0.565784 48.0001 0.593072 47.7896 0.694115 47.6125C0.795158 47.4353 0.96168 47.3059 1.15705 47.2529C1.35241 47.1998 1.56062 47.2274 1.73587 47.3296L28.3928 62.9777C28.5416 63.0609 28.6586 63.1919 28.7252 63.3501C28.7918 63.5082 28.8042 63.6843 28.7604 63.8504C28.7166 64.0164 28.6191 64.1629 28.4835 64.2665C28.3478 64.3701 28.1818 64.4249 28.0119 64.4221Z" fill="black"/>
</g>
</g>
<mask id="mask5_17_455" style="mask-type:luminance" maskUnits="userSpaceOnUse" x="27" y="47" width="29" height="18">
<path d="M27.2499 47.2815H55.3951V64.4222H27.2499V47.2815Z" fill="white"/>
</mask>
<g mask="url(#mask5_17_455)">
<g opacity="0.2">
<path d="M28.0119 64.4221C27.8419 64.4249 27.6759 64.3701 27.5403 64.2665C27.4046 64.1629 27.3072 64.0164 27.2634 63.8504C27.2196 63.6843 27.232 63.5082 27.2985 63.3501C27.3651 63.1919 27.4821 63.0609 27.6309 62.9777L54.2522 47.3296C54.4274 47.2274 54.6356 47.1998 54.831 47.2529C55.0263 47.3059 55.1929 47.4353 55.2939 47.6125C55.3949 47.7896 55.4222 48.0001 55.3698 48.1977C55.3173 48.3952 55.1894 48.5635 55.0141 48.6657L28.3929 64.3138C28.2775 64.3832 28.1461 64.4206 28.0119 64.4221Z" fill="black"/>
</g>
</g>
<mask id="mask6_17_455" style="mask-type:luminance" maskUnits="userSpaceOnUse" x="0" y="16" width="3" height="33">
<path d="M0.592957 16.1417H2.11689V48.8342H0.592957V16.1417Z" fill="white"/>
</mask>
<g mask="url(#mask6_17_455)">
<g opacity="0.2">
<path d="M1.35493 48.8342C1.15284 48.8342 0.959029 48.7531 0.816133 48.6086C0.673236 48.4641 0.592957 48.2682 0.592957 48.0639V16.8519C0.592957 16.6476 0.673236 16.4516 0.816133 16.3071C0.959029 16.1627 1.15284 16.0815 1.35493 16.0815C1.55701 16.0815 1.75082 16.1627 1.89372 16.3071C2.03661 16.4516 2.11689 16.6476 2.11689 16.8519V48.0639C2.11689 48.2682 2.03661 48.4641 1.89372 48.6086C1.75082 48.7531 1.55701 48.8342 1.35493 48.8342Z" fill="black"/>
</g>
</g>
<mask id="mask7_17_455" style="mask-type:luminance" maskUnits="userSpaceOnUse" x="53" y="16" width="3" height="33">
<path d="M53.8712 16.1417H55.3951V48.8342H53.8712V16.1417Z" fill="white"/>
</mask>
<g mask="url(#mask7_17_455)">
<g opacity="0.2">
<path d="M54.6451 48.8342C54.443 48.8342 54.2492 48.7531 54.1063 48.6086C53.9634 48.4641 53.8831 48.2682 53.8831 48.0639V16.8519C53.8831 16.6476 53.9634 16.4516 54.1063 16.3071C54.2492 16.1627 54.443 16.0815 54.6451 16.0815C54.8471 16.0815 55.041 16.1627 55.1839 16.3071C55.3268 16.4516 55.407 16.6476 55.407 16.8519V48.0639C55.407 48.2682 55.3268 48.4641 55.1839 48.6086C55.041 48.7531 54.8471 48.8342 54.6451 48.8342Z" fill="black"/>
</g>
</g>
<mask id="mask8_17_455" style="mask-type:luminance" maskUnits="userSpaceOnUse" x="27" y="0" width="2" height="65">
<path d="M27.2499 0.589874H28.7739V64.3379H27.2499V0.589874Z" fill="white"/>
</mask>
<g mask="url(#mask8_17_455)">
<g opacity="0.2">
<path d="M28.0119 64.3379C27.8098 64.3379 27.616 64.2567 27.4731 64.1123C27.3302 63.9678 27.2499 63.7718 27.2499 63.5675V1.36024C27.2499 1.15593 27.3302 0.959983 27.4731 0.815511C27.616 0.671039 27.8098 0.589874 28.0119 0.589874C28.214 0.589874 28.4078 0.671039 28.5507 0.815511C28.6936 0.959983 28.7739 1.15593 28.7739 1.36024V63.5675C28.7739 63.7718 28.6936 63.9678 28.5507 64.1123C28.4078 64.2567 28.214 64.3379 28.0119 64.3379Z" fill="black"/>
</g>
</g>
<rect x="14.5" y="27.4" width="3.53125" height="10.2375" rx="1.76562" stroke="black"/>
<rect x="38.9688" y="27.4" width="3.53125" height="10.2375" rx="1.76562" stroke="black"/>
<rect x="18.4875" y="24.5" width="3.53125" height="16.2188" rx="1.76562" stroke="black"/>
<rect x="34.2143" y="30.7143" width="3.66071" height="11.4286" transform="rotate(90 34.2143 30.7143)" stroke="black"/>
<rect x="34.8" y="24.5" width="3.53125" height="16.2188" rx="1.76562" stroke="black"/>
<path d="M86.928 36.808H80.256L79.152 40H75.624L81.648 23.224H85.56L91.584 40H88.032L86.928 36.808ZM86.016 34.12L83.592 27.112L81.168 34.12H86.016ZM102.476 40L98.7797 33.472H97.1957V40H93.8357V23.248H100.124C101.42 23.248 102.524 23.48 103.436 23.944C104.348 24.392 105.028 25.008 105.476 25.792C105.94 26.56 106.172 27.424 106.172 28.384C106.172 29.488 105.852 30.488 105.212 31.384C104.572 32.264 103.62 32.872 102.356 33.208L106.364 40H102.476ZM97.1957 30.952H100.004C100.916 30.952 101.596 30.736 102.044 30.304C102.492 29.856 102.716 29.24 102.716 28.456C102.716 27.688 102.492 27.096 102.044 26.68C101.596 26.248 100.916 26.032 100.004 26.032H97.1957V30.952ZM119.555 23.248V25.96H112.571V30.256H117.923V32.92H112.571V40H109.211V23.248H119.555ZM125.297 23.248V40H121.937V23.248H125.297Z" fill="black"/>
</svg>
